<svg id="图层_1" data-name="图层 1" xmlns="http://www.w3.org/2000/svg" viewBox="0 0 48 48"><defs><style>.cls-1{fill:#85f4ff;}.cls-2{fill:#001504;}</style></defs><path class="cls-1" d="M24,45.74h-.08L2,34.76V13.22l22-11,22,11V34.76l-22,11Z"/><path class="cls-2" d="M24,4.46l20,10V33.52l-20,10-20-10V14.46l20-10M24,.25a2.08,2.08,0,0,0-.89.18L.89,11.54A1.79,1.79,0,0,0,0,13V35a1.76,1.76,0,0,0,.89,1.44L23.11,47.55a2.18,2.18,0,0,0,1.78,0L47.11,36.44A1.76,1.76,0,0,0,48,35V13a1.79,1.79,0,0,0-.89-1.45L24.89.43A2.08,2.08,0,0,0,24,.25Z"/></svg>