<svg id="图层_1" data-name="图层 1" xmlns="http://www.w3.org/2000/svg" xmlns:xlink="http://www.w3.org/1999/xlink" viewBox="0 0 256 256"><defs><style>.cls-1{fill:#fff;}.cls-2{fill:#42c2ff;}.cls-3{fill:url(#未命名的渐变_15);}.cls-4{fill:#effffd;}.cls-5{fill:#b8fff9;}.cls-6{fill:#1c1c1c;}</style><radialGradient id="未命名的渐变_15" cx="127.75" cy="130.08" fx="135.8123464474452" r="50.26" gradientTransform="translate(-166.55 -172.07) scale(2.28 2.31)" gradientUnits="userSpaceOnUse"><stop offset="0.35" stop-color="#42c2ff"/><stop offset="0.78" stop-color="#85f4ff"/></radialGradient></defs><path class="cls-1" d="M128,252.53a10.11,10.11,0,0,1-4.33-.86l-113.6-56.8a8.45,8.45,0,0,1-4.13-6.69V75.82a8.45,8.45,0,0,1,4.13-6.69l113.6-56.8a11.33,11.33,0,0,1,8.66,0l113.6,56.8a8.45,8.45,0,0,1,4.13,6.69V188.18a8.45,8.45,0,0,1-4.13,6.69l-113.6,56.8A10.11,10.11,0,0,1,128,252.53Z"/><path class="cls-2" d="M128,13.4a8.21,8.21,0,0,1,3.47.67l113.59,56.8a6.53,6.53,0,0,1,3.06,4.95V188.18a6.53,6.53,0,0,1-3.06,4.95l-113.59,56.8a9.32,9.32,0,0,1-6.94,0L10.94,193.13a6.53,6.53,0,0,1-3.06-4.95V75.82a6.53,6.53,0,0,1,3.06-4.95l113.59-56.8A8.21,8.21,0,0,1,128,13.4m0-3.87a12,12,0,0,0-5.2,1.07L9.2,67.4A10.34,10.34,0,0,0,4,75.82V188.18a10.34,10.34,0,0,0,5.2,8.42l113.6,56.8a13.17,13.17,0,0,0,10.4,0l113.6-56.8a10.34,10.34,0,0,0,5.2-8.42V75.82a10.34,10.34,0,0,0-5.2-8.42L133.2,10.6A12,12,0,0,0,128,9.53Z"/><path class="cls-3" d="M244,184.14a10.42,10.42,0,0,1-5.24,8.48L133.24,245.38a13.25,13.25,0,0,1-10.48,0L17.24,192.62A10.42,10.42,0,0,1,12,184.14V79.86a10.42,10.42,0,0,1,5.24-8.48L122.76,18.62a13.25,13.25,0,0,1,10.48,0L238.76,71.38A10.42,10.42,0,0,1,244,79.86Z"/><path class="cls-4" d="M128,200.91a5.94,5.94,0,0,1-2.55-.52L60.82,168.07A5.05,5.05,0,0,1,58.3,164V100a5.05,5.05,0,0,1,2.52-4.07l64.63-32.32a6.51,6.51,0,0,1,5.1,0l64.63,32.32A5.08,5.08,0,0,1,197.7,100v64a5.08,5.08,0,0,1-2.52,4.07l-64.63,32.32A5.94,5.94,0,0,1,128,200.91Z"/><path class="cls-5" d="M128,63.39a5.62,5.62,0,0,1,2.41.49L195.05,96.2a4.74,4.74,0,0,1,2.35,3.8v64a4.74,4.74,0,0,1-2.35,3.8l-64.64,32.32a6.17,6.17,0,0,1-4.82,0L61,167.8A4.74,4.74,0,0,1,58.6,164V100A4.74,4.74,0,0,1,61,96.2l64.64-32.32a5.62,5.62,0,0,1,2.41-.49m0-.6a6.14,6.14,0,0,0-2.68.55L60.68,95.66A5.34,5.34,0,0,0,58,100v64a5.34,5.34,0,0,0,2.68,4.34l64.64,32.32a6.8,6.8,0,0,0,5.36,0l64.64-32.32A5.34,5.34,0,0,0,198,164V100a5.34,5.34,0,0,0-2.68-4.34L130.68,63.34a6.14,6.14,0,0,0-2.68-.55Z"/><rect class="cls-6" x="126" y="128" width="40" height="6" rx="1.88"/><rect class="cls-6" x="126" y="74" width="4" height="60" rx="2"/><path class="cls-1" d="M14.5,51.37A8.53,8.53,0,0,1,10.65,35.2L71.42,4.82A8.53,8.53,0,0,1,83.33,15.16a8.47,8.47,0,0,1-4.27,4.95L18.28,50.48A8.4,8.4,0,0,1,14.5,51.37Z"/><path class="cls-2" d="M75.21,5.86a6.69,6.69,0,0,1,6,3.65,6.62,6.62,0,0,1-3,8.87L17.42,48.75a6.46,6.46,0,0,1-2.92.69,6.68,6.68,0,0,1-5.95-3.65,6.63,6.63,0,0,1,3-8.87L72.28,6.55a6.51,6.51,0,0,1,2.93-.69m0-3.86a10.31,10.31,0,0,0-4.65,1.1L9.78,33.47A10.5,10.5,0,0,0,5.1,47.52h0a10.5,10.5,0,0,0,9.4,5.78,10.37,10.37,0,0,0,4.65-1.1L79.92,21.83a10.51,10.51,0,0,0,4.69-14h0A10.5,10.5,0,0,0,75.21,2Z"/><path class="cls-1" d="M241.5,51.37a8.4,8.4,0,0,1-3.78-.89L176.94,20.11a8.54,8.54,0,0,1,3.85-16.18,8.45,8.45,0,0,1,3.79.89L245.35,35.2a8.57,8.57,0,0,1,3.83,11.46A8.65,8.65,0,0,1,241.5,51.37Z"/><path class="cls-2" d="M180.79,5.86h0a6.51,6.51,0,0,1,2.93.69l60.77,30.37a6.61,6.61,0,0,1-3,12.52,6.46,6.46,0,0,1-2.92-.69L177.8,18.38a6.62,6.62,0,0,1-3-8.87,6.69,6.69,0,0,1,5.95-3.65m0-3.86a10.5,10.5,0,0,0-9.4,5.78h0a10.51,10.51,0,0,0,4.69,14L236.85,52.2a10.37,10.37,0,0,0,4.65,1.1,10.5,10.5,0,0,0,9.4-5.78h0a10.5,10.5,0,0,0-4.68-14.05L185.44,3.1A10.31,10.31,0,0,0,180.79,2Z"/><path class="cls-1" d="M6.36,252.68s0,0-.06,0L16,211.5l.1-.05,80.33,40.71a.12.12,0,0,1,0,.15Z"/><path class="cls-2" d="M17.52,214.61l70.14,35.54L9,250.48l8.49-35.87m-1.43-5.35a2.26,2.26,0,0,0-2.2,1.73l-9.73,41.1a2.26,2.26,0,0,0,2.2,2.77h0l90.06-.37a2.26,2.26,0,0,0,1-4.28L17.11,209.5a2.21,2.21,0,0,0-1-.24Z"/><path class="cls-1" d="M159.7,252.22a.11.11,0,0,1-.07-.12L240,211.53l.11.05,9.73,40.93-.08.09Z"/><path class="cls-2" d="M238.63,214.68l8.5,35.73-78.65-.33,70.15-35.4m1.43-5.34a2.3,2.3,0,0,0-1,.24l-80.36,40.56a2.25,2.25,0,0,0,1,4.26l90.09.38h0A2.25,2.25,0,0,0,252,252l-9.73-40.94a2.26,2.26,0,0,0-2.2-1.73Z"/></svg>