<?xml version="1.0" standalone="no"?><!DOCTYPE svg PUBLIC "-//W3C//DTD SVG 1.1//EN" "http://www.w3.org/Graphics/SVG/1.1/DTD/svg11.dtd"><svg t="1678293302305" class="icon" viewBox="0 0 1102 1024" version="1.1" xmlns="http://www.w3.org/2000/svg" p-id="20540" width="137.75" height="128" xmlns:xlink="http://www.w3.org/1999/xlink"><path d="M1059.327185 319.015533c-54.54765-124.061443-156.671879-223.546905-284.041628-276.716095A204.799842 204.799842 0 0 1 900.331615 0.000394C1012.105068 0.000394 1102.768382 88.300634 1102.768382 197.199011c0 46.079965-16.305218 88.30024-43.441197 121.855907z m-8.270763 218.190601c0 129.299593-52.105806 246.508118-136.546356 333.666205l69.907638 68.095948c9.215993 9.058455 14.966142 21.464599 14.966143 35.249204 0 27.49044-22.882444 49.782116-51.121192 49.782115a51.593806 51.593806 0 0 1-36.155049-14.572296l-75.067019-73.137175A506.210072 506.210072 0 0 1 551.384191 1023.999606c-106.102072 0-204.287843-32.452898-285.18378-87.433779l-74.55502 72.703944a52.381498 52.381498 0 0 1-36.548895 14.729835c-28.553824 0-51.71196-22.606752-51.71196-50.372884 0-13.942143 5.828919-26.505826 15.123681-35.64305l69.316869-67.544563c-84.164858-87.118702-136.113126-204.130305-136.113126-333.272359C51.71196 268.288187 275.416404 50.412663 551.384191 50.412663s499.711616 217.914909 499.711616 486.793471zM551.384191 151.000893c-218.899524 0-396.287695 172.898329-396.287695 386.126472 0 213.188759 177.388171 386.087088 396.287695 386.087088s396.32708-172.898329 396.32708-386.087088c0-213.228144-177.427556-386.126472-396.32708-386.126472z m206.769072 436.499357H551.384191c-28.593209 0-51.672576-22.567367-51.672575-50.372885V268.603264c0-27.805517 23.079367-50.3335 51.672575-50.3335 28.593209 0 51.71196 22.527983 51.71196 50.372885v218.190601h155.057112c28.593209 0 51.71196 22.527983 51.71196 50.412269 0 27.766132-23.118751 50.3335-51.71196 50.3335zM44.347043 325.868451A197.238002 197.238002 0 0 1 0 201.413162C0 90.151709 92.553775 0.000394 206.769072 0.000394 255.054573 0.000394 299.322847 16.226843 334.493281 43.205284 204.405997 97.477242 100.115615 199.128856 44.347043 325.868451z" fill="#1296db" p-id="20541"></path></svg>