<?xml version="1.0" standalone="no"?><!DOCTYPE svg PUBLIC "-//W3C//DTD SVG 1.1//EN" "http://www.w3.org/Graphics/SVG/1.1/DTD/svg11.dtd"><svg t="1620726122050" class="icon" viewBox="0 0 1024 1024" version="1.1" xmlns="http://www.w3.org/2000/svg" p-id="11486" width="20" height="20" xmlns:xlink="http://www.w3.org/1999/xlink"><defs><style type="text/css"></style></defs><path d="M512 0C228.864 0 0 228.864 0 512s228.864 512 512 512 512-228.864 512-512S795.136 0 512 0m215.04 727.04c-13.824 13.824-37.376 13.824-51.2 0l-163.84-163.84-163.84 163.84c-13.824 13.824-37.376 13.824-51.2 0s-13.824-37.376 0-51.2l163.84-163.84-163.84-163.84c-13.824-13.824-13.824-37.376 0-51.2s37.376-13.824 51.2 0l163.84 163.84 163.84-163.84c13.824-13.824 37.376-13.824 51.2 0s13.824 37.376 0 51.2l-163.84 163.84 163.84 163.84c16.896 13.824 16.896 37.376 0 51.2z" p-id="11487" fill="#d81e06"></path></svg>