<svg id="图层_1" data-name="图层 1" xmlns="http://www.w3.org/2000/svg" viewBox="0 0 20 20"><defs><style>.cls-1{fill:#f44e76;}.cls-2{fill:#001504;}.cls-3{fill:#fffffb;}.cls-4{fill:#f1f1f1;}</style></defs><path class="cls-1" d="M10,18.74a1.09,1.09,0,0,1-.45-.08L1.34,14.55A.81.81,0,0,1,1,14V6a.81.81,0,0,1,.34-.55L9.55,1.34a1.31,1.31,0,0,1,.9,0l8.21,4.11A.81.81,0,0,1,19,6v8a.81.81,0,0,1-.34.55l-8.21,4.11A1.09,1.09,0,0,1,10,18.74Z"/><path class="cls-2" d="M10,2.26h.06l7.94,4v7.54l-7.94,4H9.94L2,13.77V6.23l7.94-4H10m0-2a2.08,2.08,0,0,0-.89.18L.89,4.55A1.79,1.79,0,0,0,0,6v8a1.79,1.79,0,0,0,.89,1.45l8.22,4.11a2.29,2.29,0,0,0,1.78,0l8.22-4.11A1.79,1.79,0,0,0,20,14V6a1.79,1.79,0,0,0-.89-1.45L10.89.44A2.08,2.08,0,0,0,10,.26Z"/><path class="cls-3" d="M7.35,13.28a.63.63,0,0,1-.45-.18.63.63,0,0,1,0-.9l5.3-5.3a.64.64,0,0,1,.9.9L7.8,13.1A.63.63,0,0,1,7.35,13.28Z"/><path class="cls-4" d="M12.65,6.83A.56.56,0,0,1,13,7a.52.52,0,0,1,0,.73L7.71,13a.51.51,0,0,1-.36.15A.56.56,0,0,1,7,13a.52.52,0,0,1,0-.73L12.29,7a.51.51,0,0,1,.36-.15m0-.23a.74.74,0,0,0-.53.22l-5.3,5.3a.75.75,0,0,0,0,1.06.73.73,0,0,0,.53.22.74.74,0,0,0,.53-.22l5.3-5.3a.75.75,0,0,0,0-1.06h0a.73.73,0,0,0-.53-.22Z"/><path class="cls-3" d="M12.65,13.28a.63.63,0,0,1-.45-.18L6.9,7.8a.63.63,0,0,1,0-.9.65.65,0,0,1,.9,0l5.3,5.3a.63.63,0,0,1-.45,1.08Z"/><path class="cls-4" d="M7.35,6.83A.51.51,0,0,1,7.71,7L13,12.29a.51.51,0,0,1,.15.36.51.51,0,0,1-.52.52.51.51,0,0,1-.36-.15L7,7.71a.51.51,0,0,1-.15-.36.51.51,0,0,1,.52-.52m0-.23a.73.73,0,0,0-.53.22.75.75,0,0,0,0,1.06l5.3,5.3a.74.74,0,0,0,.53.22.73.73,0,0,0,.53-.22.75.75,0,0,0,0-1.06l-5.3-5.3a.74.74,0,0,0-.53-.22Z"/></svg>