<svg id="图层_1" data-name="图层 1" xmlns="http://www.w3.org/2000/svg" viewBox="0 0 33 20"><defs><style>.cls-1{fill:#39b54a;}.cls-2{fill:#f2f2f2;}</style></defs><path class="cls-1" d="M9.25,18.5a1.07,1.07,0,0,1-.48-.23L1.94,10,8.77,1.73a1.06,1.06,0,0,1,.49-.23H23.75a1.07,1.07,0,0,1,.48.23L31.06,10l-6.83,8.27a1.07,1.07,0,0,1-.48.23Z"/><path d="M23.34,3l5.77,7-5.77,7H9.66L3.89,10,9.66,3H23.34m.41-3H9.25A2.44,2.44,0,0,0,7.61.77l-7,8.46a1.26,1.26,0,0,0,0,1.54l7,8.46A2.44,2.44,0,0,0,9.25,20h14.5a2.44,2.44,0,0,0,1.64-.77l7-8.46a1.26,1.26,0,0,0,0-1.54l-7-8.46A2.44,2.44,0,0,0,23.75,0Z"/><polyline class="cls-2" points="23.1 3 16.71 3 10.94 10 16.71 17 23.1 17"/><polyline class="cls-2" points="23.09 17 23.29 17 29.06 10 23.29 3 23.09 3"/></svg>